<svg width="31" height="30" viewBox="0 0 31 30" fill="none" xmlns="http://www.w3.org/2000/svg">
<g id="Instagram">
<path id="Vector" d="M23.1301 5.49023C22.1701 5.49023 21.4001 6.27023 21.4001 7.22023C21.4001 8.17023 22.1801 8.96023 23.1301 8.96023C24.0801 8.96023 24.8601 8.18023 24.8601 7.22023C24.8601 6.26023 24.0801 5.49023 23.1301 5.49023Z" fill="white"/>
<path id="Vector_2" d="M15.4201 7.70996C11.4001 7.70996 8.13013 10.98 8.13013 15C8.13013 19.02 11.4001 22.29 15.4201 22.29C19.4401 22.29 22.7101 19.02 22.7101 15C22.7101 10.98 19.4401 7.70996 15.4201 7.70996ZM15.4201 19.67C12.8501 19.67 10.7501 17.58 10.7501 15C10.7501 12.42 12.8401 10.33 15.4201 10.33C18.0001 10.33 20.0901 12.42 20.0901 15C20.0901 17.58 18.0001 19.67 15.4201 19.67Z" fill="white"/>
<path id="Vector_3" d="M21.21 29.8002H9.39C4.49 29.8002 0.5 25.8102 0.5 20.9102V9.0902C0.5 4.1902 4.49 0.200195 9.39 0.200195H21.2C26.1 0.200195 30.09 4.1902 30.09 9.0902V20.9102C30.09 25.8102 26.1 29.8002 21.2 29.8002H21.21ZM9.39 2.9902C6.02 2.9902 3.29 5.7302 3.29 9.0902V20.9102C3.29 24.2802 6.03 27.0102 9.39 27.0102H21.2C24.57 27.0102 27.31 24.2702 27.31 20.9102V9.0902C27.31 5.7202 24.57 2.9902 21.2 2.9902H9.39Z" fill="white"/>
</g>
</svg>
