<svg width="30" height="30" viewBox="0 0 30 30" fill="none" xmlns="http://www.w3.org/2000/svg">
<g id="Whatsapp">
<path id="Vector" d="M0.100088 29.8002L2.22009 21.8802C1.02009 19.7102 0.390088 17.2802 0.390088 14.8202C0.390088 6.76019 6.95009 0.200195 15.0001 0.200195C23.0501 0.200195 29.6201 6.76019 29.6201 14.8202C29.6201 22.8802 23.0601 29.4402 15.0001 29.4402C12.5801 29.4402 10.1901 28.8302 8.05009 27.6702L0.0900879 29.8002H0.100088ZM8.45009 24.7002L8.95009 25.0002C10.7901 26.1002 12.8801 26.6802 15.0001 26.6802C21.5401 26.6802 26.8501 21.3602 26.8501 14.8302C26.8501 8.3002 21.5401 2.9702 15.0001 2.9702C8.46009 2.9702 3.15009 8.2802 3.15009 14.8202C3.15009 16.9802 3.75009 19.1002 4.88009 20.9702L5.19009 21.4702L4.01009 25.8902L8.45009 24.7002Z" fill="white"/>
<path id="Vector_2" fill-rule="evenodd" clip-rule="evenodd" d="M20.4401 16.8503C19.8401 16.4903 19.0601 16.0903 18.3501 16.3803C17.8101 16.6003 17.4601 17.4503 17.1101 17.8903C16.9301 18.1103 16.7101 18.1503 16.4401 18.0403C14.4001 17.2303 12.8401 15.8603 11.7101 13.9903C11.5201 13.7003 11.5501 13.4703 11.7801 13.2003C12.1201 12.8003 12.5501 12.3403 12.6401 11.8003C12.7301 11.2603 12.4801 10.6303 12.2601 10.1503C11.9701 9.54033 11.6601 8.66033 11.0401 8.31033C10.4701 7.99033 9.73013 8.17033 9.23013 8.58033C8.36013 9.29033 7.94013 10.4003 7.95013 11.5003C7.95013 11.8103 7.99013 12.1203 8.06013 12.4303C8.24013 13.1603 8.57013 13.8303 8.95013 14.4803C9.23013 14.9703 9.54013 15.4403 9.88013 15.8903C10.9701 17.3703 12.3301 18.6603 13.9001 19.6203C14.6901 20.1003 15.5301 20.5203 16.4101 20.8103C17.3901 21.1303 18.2701 21.4703 19.3301 21.2703C20.4401 21.0603 21.5401 20.3703 21.9801 19.3003C22.1101 18.9803 22.1801 18.6303 22.1001 18.3003C21.9501 17.6103 21.0101 17.2003 20.4501 16.8603L20.4401 16.8503Z" fill="white"/>
</g>
</svg>
